<?xml version="1.0" standalone="no"?>
<!DOCTYPE svg PUBLIC "-//W3C//DTD SVG 20010904//EN"
 "http://www.w3.org/TR/2001/REC-SVG-20010904/DTD/svg10.dtd">
<svg version="1.0" xmlns="http://www.w3.org/2000/svg"
 width="1152.000000pt" height="648.000000pt" viewBox="0 0 1152.000000 648.000000"
 preserveAspectRatio="xMidYMid meet">

<g transform="translate(0.000000,648.000000) scale(0.100000,-0.100000)"
fill="#000000" stroke="none">
<path d="M1348 3099 c-23 -13 -23 -58 -1 -74 43 -32 88 39 46 71 -22 16 -23
16 -45 3z m40 -36 c-5 -26 -38 -29 -38 -4 0 15 6 21 21 21 14 0 19 -5 17 -17z"/>
<path d="M624 3053 c-26 -13 -30 -21 -31 -54 -1 -34 3 -42 27 -54 23 -12 28
-22 33 -67 5 -45 2 -55 -14 -67 -10 -7 -19 -18 -19 -24 0 -5 9 -2 20 8 17 15
24 16 45 7 14 -6 25 -19 25 -29 0 -13 3 -14 11 -6 16 16 37 5 55 -29 13 -24
14 -49 8 -131 -4 -56 -7 -110 -5 -119 1 -11 -4 -18 -15 -18 -10 0 -14 -3 -10
-7 3 -4 -4 -13 -16 -21 -20 -12 -21 -13 -3 -9 18 3 20 -2 22 -55 1 -47 -1 -58
-12 -54 -8 3 -17 0 -21 -6 -4 -6 -3 -8 3 -5 20 12 36 -21 28 -56 -5 -17 -9
-69 -9 -115 -1 -59 -5 -85 -15 -91 -19 -12 -7 -39 24 -53 33 -15 47 -2 50 49
14 197 16 203 54 229 20 13 39 24 42 24 11 0 28 -88 35 -182 7 -92 15 -108 51
-108 27 0 43 28 23 40 -11 7 -11 11 -1 24 10 12 11 26 3 63 -17 76 -48 513
-36 513 3 0 15 -5 27 -12 12 -6 41 -10 65 -9 35 2 42 -1 43 -16 1 -10 4 -4 8
12 4 22 14 33 36 40 41 14 56 25 50 36 -8 13 -72 11 -93 -2 -27 -17 -71 27
-74 72 -2 35 -37 79 -62 79 -8 0 -24 9 -37 19 -19 16 -22 22 -11 32 19 20 15
83 -6 102 -53 48 -108 -26 -71 -95 15 -28 -5 -43 -68 -52 -52 -7 -88 14 -80
46 3 10 0 21 -5 25 -7 4 -6 10 4 17 8 6 18 27 22 48 6 33 4 38 -27 57 -40 24
-34 24 -73 4z m76 -39 c0 -19 -27 -24 -41 -8 -7 8 -19 12 -28 9 -9 -3 -6 4 7
15 19 16 27 17 43 7 10 -6 19 -17 19 -23z m190 -653 c0 -52 -2 -59 -25 -69
-35 -16 -35 -17 -20 26 8 20 17 54 20 75 9 55 25 35 25 -32z"/>
<path d="M398 3021 c-38 -22 -38 -65 -1 -85 40 -20 73 -3 73 39 0 47 -34 68
-72 46z m47 -41 c0 -20 -5 -25 -25 -25 -28 0 -41 32 -18 46 23 15 43 5 43 -21z"/>
<path d="M1243 3002 c-29 -18 -43 -34 -43 -49 0 -12 -9 -27 -20 -33 -14 -7
-20 -21 -20 -44 0 -42 34 -62 74 -43 36 17 37 69 1 85 -39 18 -32 48 16 72 23
12 48 19 56 15 13 -4 14 -3 3 10 -16 19 -16 19 -67 -13z m-3 -114 c0 -17 -30
-40 -45 -34 -18 7 -20 43 -2 49 17 6 47 -4 47 -15z"/>
<path d="M1357 2979 c7 -7 15 -10 18 -7 3 3 -2 9 -12 12 -14 6 -15 5 -6 -5z"/>
<path d="M740 2920 c-14 -11 -20 -20 -15 -19 13 0 50 28 44 33 -2 3 -15 -4
-29 -14z"/>
<path d="M1334 2855 c-10 -8 -14 -14 -9 -14 6 0 19 6 29 14 11 8 15 15 10 15
-6 0 -19 -7 -30 -15z"/>
<path d="M500 2811 c0 -5 -28 -23 -62 -41 l-63 -33 0 -78 c0 -62 3 -80 15 -84
8 -3 39 -20 68 -39 l52 -35 52 35 c29 19 59 34 68 34 12 0 14 13 12 76 -3 71
-2 75 16 70 12 -4 28 1 43 14 l24 21 -27 -16 c-26 -16 -29 -16 -55 2 -15 10
-49 29 -75 42 -27 13 -48 28 -48 32 0 5 -4 9 -10 9 -5 0 -10 -4 -10 -9z m65
-54 l50 -32 3 -67 3 -66 -57 -31 -56 -30 -53 30 c-59 33 -64 42 -56 117 6 52
8 55 56 82 28 16 52 29 55 29 3 1 28 -14 55 -32z"/>
<path d="M483 2703 c-29 -14 -33 -21 -32 -52 l2 -36 6 34 c4 24 15 38 41 52
43 22 28 24 -17 2z"/>
<path d="M556 2695 c10 -8 23 -15 28 -15 6 0 1 7 -10 15 -10 8 -23 15 -28 15
-6 0 -1 -7 10 -15z"/>
<path d="M577 2607 c-3 -8 -20 -21 -39 -30 -18 -9 -27 -17 -20 -17 22 0 72 33
72 47 0 17 -6 17 -13 0z"/>
<path d="M1485 2761 c-3 -6 -24 -21 -47 -32 -22 -11 -38 -23 -35 -25 3 -3 25
7 49 22 53 33 53 33 46 40 -3 3 -9 0 -13 -5z"/>
<path d="M1565 2710 c3 -5 8 -10 11 -10 2 0 4 5 4 10 0 6 -5 10 -11 10 -5 0
-7 -4 -4 -10z"/>
<path d="M1546 2651 c-18 -11 -26 -24 -26 -44 0 -19 -7 -31 -22 -38 -21 -9
-21 -9 4 -4 15 3 37 0 47 -7 16 -10 25 -9 45 2 34 17 35 59 2 87 -22 19 -25
19 -50 4z m52 -47 c3 -24 -25 -41 -41 -25 -7 7 -5 12 6 17 9 3 17 11 17 16 0
6 -7 5 -15 -2 -17 -14 -31 -7 -20 10 12 19 50 7 53 -16z"/>
<path d="M1281 2643 c-1 -15 -15 -28 -50 -45 -41 -21 -48 -28 -45 -51 1 -15
-2 -27 -8 -27 -6 0 -6 -6 2 -15 7 -8 10 -24 7 -35 -3 -11 -1 -20 5 -20 14 0
68 -40 68 -50 0 -5 -24 -23 -52 -40 -29 -16 -49 -30 -45 -30 15 0 83 38 96 54
7 9 17 13 22 11 4 -3 30 8 58 25 l49 31 4 60 3 60 -52 30 c-28 16 -54 37 -56
47 -4 13 -5 12 -6 -5z m58 -60 c28 -16 31 -22 31 -70 0 -48 -2 -52 -36 -73
-40 -23 -64 -21 -64 7 0 14 -2 15 -9 4 -7 -10 -13 -11 -30 -2 -27 15 -30 71
-3 71 9 0 26 8 37 17 l20 16 -20 -8 c-45 -17 -55 -17 -55 -2 0 19 21 36 57 47
39 12 38 12 72 -7z"/>
<path d="M1431 2597 c2 -1 13 -9 24 -17 19 -14 19 -14 6 3 -7 9 -18 17 -24 17
-6 0 -8 -1 -6 -3z"/>
<path d="M1160 2562 c0 -6 -8 -13 -17 -15 -16 -4 -16 -5 -1 -6 18 -1 34 16 24
26 -3 4 -6 1 -6 -5z"/>
<path d="M1080 2514 c-16 -8 -19 -14 -9 -14 8 0 24 7 35 15 24 18 7 18 -26 -1z"/>
<path d="M338 2492 c-23 -14 -28 -24 -28 -58 0 -37 3 -43 30 -54 20 -8 30 -20
31 -34 0 -21 0 -21 9 2 5 12 21 27 35 34 16 7 25 19 25 35 0 12 4 23 9 23 22
0 -4 38 -35 54 -42 20 -42 20 -76 -2z m72 -20 l23 -18 -34 -22 c-35 -22 -33
-30 2 -12 15 8 19 7 19 -5 0 -8 -3 -16 -7 -16 -63 -11 -83 -1 -83 41 0 18 7
30 23 38 30 15 32 14 57 -6z"/>
<path d="M653 2488 c-18 -11 -33 -26 -33 -34 0 -8 -9 -19 -20 -26 -31 -19 -27
-70 6 -85 19 -9 32 -9 46 -2 11 6 26 8 33 5 7 -2 21 2 32 9 10 8 13 15 6 15
-6 0 -15 -5 -18 -10 -11 -17 -25 0 -25 29 0 19 -8 32 -25 41 -33 17 -32 27 5
48 16 9 30 20 30 25 0 9 2 9 -37 -15z m7 -100 c0 -10 -4 -16 -10 -13 -5 3 -10
-1 -10 -10 0 -20 -20 -15 -34 9 -9 13 -7 20 7 31 24 17 47 9 47 -17z"/>
<path d="M498 2419 c6 -7 12 -28 12 -46 0 -27 -6 -37 -32 -53 -17 -10 -36 -16
-41 -13 -6 3 -7 1 -3 -5 5 -9 18 -6 47 8 36 19 39 23 39 64 0 33 -5 46 -17 51
-15 5 -16 4 -5 -6z"/>
<path d="M10553 789 l-50 -90 46 -84 c25 -47 48 -85 51 -85 3 0 28 38 55 85
l49 85 93 0 c51 0 93 3 93 6 0 3 -21 44 -46 90 l-46 84 -97 0 -98 0 -50 -91z"/>
<path d="M9790 757 l0 -117 -97 -45 c-53 -25 -94 -47 -92 -49 2 -2 46 -29 98
-60 l94 -56 56 32 c31 17 75 43 98 58 l43 26 -96 159 c-53 88 -98 162 -100
164 -2 2 -4 -48 -4 -112z"/>
<path d="M1 613 c-1 -62 2 -74 19 -83 10 -6 38 -48 61 -95 51 -102 67 -118
172 -170 l82 -40 45 -90 45 -90 108 -2 c81 -1 106 2 98 10 -9 12 -11 18 -11
36 0 14 -29 21 -36 9 -4 -6 -3 -8 4 -4 6 3 14 1 19 -6 10 -16 14 -42 5 -33 -4
4 -7 12 -7 18 0 7 -7 12 -15 12 -8 1 -14 7 -12 15 2 7 -1 16 -7 19 -5 3 -11
13 -13 20 -6 27 -38 53 -52 42 -9 -8 -23 0 -52 31 -21 23 -31 36 -21 29 11 -9
17 -10 17 -3 0 13 -40 38 -54 34 -5 -2 -3 5 5 14 9 12 9 15 2 10 -7 -4 -13 -2
-13 3 0 6 -5 11 -11 11 -5 0 -7 -6 -3 -12 6 -10 5 -10 -7 -1 -9 7 -15 26 -14
43 1 17 -2 33 -7 36 -5 3 -7 0 -6 -7 5 -22 -25 -17 -53 8 -19 17 -26 33 -24
53 1 17 -1 27 -6 24 -5 -3 -6 -11 -2 -17 5 -8 2 -8 -9 0 -8 7 -17 10 -20 7 -3
-3 -9 -1 -12 5 -4 5 -1 13 5 17 8 5 9 3 4 -6 -5 -9 -4 -11 4 -6 6 4 9 12 5 17
-3 5 -10 7 -15 4 -5 -4 -9 0 -9 8 0 22 -26 41 -36 26 -5 -8 -3 -9 6 -4 9 6 11
4 5 -4 -5 -9 -13 -7 -31 10 -22 20 -24 47 -3 33 5 -3 6 -10 3 -16 -4 -7 -2 -8
5 -4 18 12 -6 35 -29 29 -19 -5 -26 10 -21 40 1 5 -3 6 -9 2 -5 -3 -10 2 -11
12 0 11 -3 13 -6 5 -3 -7 1 -20 8 -30 8 -9 -6 1 -29 23 -24 22 -47 49 -52 60
-6 14 -9 -3 -9 -52z m196 -135 c-3 -8 -6 -5 -6 6 -1 11 2 17 5 13 3 -3 4 -12
1 -19z m334 -315 c13 -16 12 -17 -3 -4 -10 7 -18 15 -18 17 0 8 8 3 21 -13z"/>
<path d="M35 649 c-3 -3 3 -13 13 -20 9 -7 14 -9 10 -5 -4 5 -3 14 2 21 7 8 5
12 -6 12 -8 0 -17 -4 -19 -8z"/>
<path d="M11491 607 c-8 -10 -7 -14 2 -14 8 0 14 6 14 14 0 7 -1 13 -2 13 -2
0 -8 -6 -14 -13z"/>
<path d="M10782 569 c-9 -16 -31 -54 -48 -82 l-30 -52 -97 -5 -98 -5 49 -85
49 -85 98 0 98 0 49 87 50 87 -47 85 c-26 48 -49 86 -51 86 -3 0 -13 -14 -22
-31z"/>
<path d="M11462 565 c0 -16 2 -22 5 -12 2 9 2 23 0 30 -3 6 -5 -1 -5 -18z"/>
<path d="M181 564 c0 -11 3 -14 6 -6 3 7 2 16 -1 19 -3 4 -6 -2 -5 -13z"/>
<path d="M223 568 c1 -7 -3 -12 -9 -11 -6 1 -11 -4 -11 -11 0 -7 6 -13 13 -13
7 0 12 5 11 11 -1 6 4 10 12 8 12 -3 12 0 1 12 -15 19 -21 20 -17 4z"/>
<path d="M11401 564 c0 -11 3 -14 6 -6 3 7 2 16 -1 19 -3 4 -6 -2 -5 -13z"/>
<path d="M11441 554 c0 -11 3 -14 6 -6 3 7 2 16 -1 19 -3 4 -6 -2 -5 -13z"/>
<path d="M11423 533 c0 -11 7 -20 14 -20 10 0 10 4 1 16 -7 9 -13 18 -15 20
-1 2 -1 -5 0 -16z"/>
<path d="M11479 530 c-1 -3 -1 -9 0 -13 2 -11 -81 -97 -93 -97 -6 0 3 13 18
29 16 16 26 35 23 43 -3 8 -6 5 -6 -7 -1 -17 -3 -17 -11 -5 -9 13 -10 13 -10
0 0 -12 -2 -12 -9 -2 -7 11 -9 11 -14 -2 -4 -9 -3 -15 1 -13 4 1 7 -2 7 -8 0
-5 -3 -9 -7 -8 -4 2 -5 -8 -2 -21 4 -26 -49 -82 -68 -70 -6 4 -8 3 -4 -4 10
-17 -44 -74 -66 -69 -15 4 -17 2 -9 -7 8 -10 6 -18 -9 -31 -22 -20 -28 -8 -7
16 6 7 -7 -3 -30 -25 -23 -21 -39 -44 -37 -51 3 -6 -3 -18 -13 -26 -16 -13
-17 -12 -5 3 9 11 10 18 2 23 -5 3 -10 1 -10 -5 0 -6 -4 -8 -10 -5 -5 3 -10 1
-10 -5 0 -6 -4 -8 -10 -5 -5 3 -10 1 -10 -4 0 -6 7 -11 15 -11 25 0 17 -15
-30 -59 -25 -23 -45 -44 -45 -46 0 -8 184 -5 195 3 6 4 26 39 44 77 43 92 52
101 149 147 45 22 89 49 97 61 11 15 15 48 15 112 0 84 -1 91 -20 91 -11 0
-21 -3 -21 -6z m-309 -330 c0 -5 -5 -10 -11 -10 -5 0 -7 5 -4 10 3 6 8 10 11
10 2 0 4 -4 4 -10z"/>
<path d="M11356 518 c3 -5 10 -6 15 -3 13 9 11 12 -6 12 -8 0 -12 -4 -9 -9z"/>
<path d="M246 508 c3 -5 10 -6 15 -3 13 9 11 12 -6 12 -8 0 -12 -4 -9 -9z"/>
<path d="M289 503 c-13 -16 -12 -17 4 -4 9 7 17 15 17 17 0 8 -8 3 -21 -13z"/>
<path d="M11340 485 c0 -7 -8 -19 -17 -24 -13 -8 -14 -10 -4 -11 16 0 5 -15
-11 -15 -6 0 -13 -5 -15 -12 -3 -7 4 -11 16 -10 11 1 18 3 16 6 -3 2 1 11 7
19 13 15 23 62 13 62 -3 0 -5 -7 -5 -15z"/>
<path d="M9873 438 l-83 -50 0 -74 c0 -41 2 -74 4 -74 6 0 176 238 176 245 0
10 -18 1 -97 -47z"/>
<path d="M315 442 c21 -23 40 -42 40 -42 1 0 2 7 2 15 0 8 -4 12 -8 10 -3 -3
-12 2 -19 10 -12 14 -7 20 14 16 5 -1 4 5 -4 13 -14 17 -21 20 -19 9 4 -22 -3
-24 -23 -7 -13 10 -5 -1 17 -24z"/>
<path d="M290 426 c0 -2 8 -10 18 -17 15 -13 16 -12 3 4 -13 16 -21 21 -21 13z"/>
<path d="M289 388 c21 -24 41 -29 41 -11 0 4 -3 3 -7 0 -3 -4 -18 3 -32 15
l-26 23 24 -27z"/>
<path d="M469 207 c25 -27 43 -39 22 -14 -6 8 -7 18 -3 23 4 5 3 6 -2 2 -5 -4
-16 -2 -25 4 -9 7 -5 0 8 -15z"/>
<path d="M11050 145 c-7 -9 -8 -15 -2 -15 5 0 12 7 16 15 3 8 4 15 2 15 -2 0
-9 -7 -16 -15z"/>
<path d="M11006 125 c-10 -8 -23 -12 -27 -9 -5 3 -9 0 -9 -6 0 -6 -4 -8 -10
-5 -5 3 -10 1 -10 -5 0 -6 -4 -8 -10 -5 -5 3 -10 1 -10 -4 0 -6 2 -11 5 -11
13 0 95 45 95 52 0 10 -2 10 -24 -7z"/>
<path d="M703 85 c0 -8 4 -12 9 -9 5 3 6 10 3 15 -9 13 -12 11 -12 -6z"/>
<path d="M10898 76 c-19 -14 -23 -26 -10 -26 4 0 13 9 20 20 14 23 13 24 -10
6z"/>
<path d="M744 57 c-4 -6 -4 -9 1 -5 4 4 14 3 22 -4 7 -6 15 -9 18 -7 2 3 -4
10 -15 17 -15 9 -21 9 -26 -1z"/>
<path d="M10950 60 c-9 -6 -10 -10 -3 -10 6 0 15 5 18 10 8 12 4 12 -15 0z"/>
</g>
</svg>
