<svg version="1.1" id="Layer_1" xmlns="http://www.w3.org/2000/svg" xmlns:xlink="http://www.w3.org/1999/xlink" x="0px" y="0px"
	 width="100%" viewBox="0 0 422 400" enable-background="new 0 0 422 400" xml:space="preserve">
<path fill="#FFFFFF" opacity="1.000000" stroke="none" 
	d="
M287.000000,1.000000 
	C332.303802,1.000000 377.607574,1.000000 422.955688,1.000000 
	C422.955688,134.216919 422.955688,267.433838 422.955688,401.000000 
	C377.979706,401.000000 332.958527,401.000000 287.374634,400.575012 
	C286.733490,397.584106 286.655090,395.018188 286.637695,392.126221 
	C286.549866,390.677368 286.401001,389.554474 286.404907,387.960907 
	C286.456848,386.516937 286.356018,385.543640 286.439850,384.159241 
	C286.500366,373.309296 286.376221,362.870483 286.404907,351.960938 
	C286.456848,350.516968 286.355988,349.543671 286.439819,348.159271 
	C286.653625,338.985138 286.791382,330.220245 286.639038,321.460419 
	C286.598694,319.142181 285.665070,316.839478 285.627075,314.410187 
	C286.025024,310.373138 285.937439,306.455536 285.802307,302.187195 
	C285.547852,301.722839 285.340942,301.609314 285.491730,301.378845 
	C285.982208,299.653625 286.115021,298.045349 286.401123,295.985962 
	C286.082092,293.519012 285.609711,291.503174 285.301025,289.356598 
	C285.575226,288.895325 285.468781,288.665680 285.616913,288.471497 
	C285.771881,286.766327 285.455383,285.126556 285.095703,283.498169 
	C285.052551,283.509583 285.124268,283.562744 285.582703,283.544373 
	C286.156677,282.373199 286.272217,281.220398 286.483459,279.670837 
	C287.561432,278.179901 288.435852,276.289917 289.545929,276.139557 
	C292.983368,275.673920 296.510529,275.870300 300.465332,275.888550 
	C311.321136,275.902588 321.714447,275.837738 332.514099,275.846741 
	C341.949707,275.886536 350.978912,275.852570 360.470825,275.893921 
	C369.294556,275.917175 377.655640,275.865082 386.479065,275.886780 
	C395.034454,275.960510 403.127472,275.960510 410.999512,275.960510 
	C410.999512,225.623367 410.999512,175.869095 410.999512,126.974258 
	C406.085480,126.974258 401.677460,127.074684 397.275940,126.948677 
	C391.854523,126.793480 386.438477,126.449631 380.557037,126.100090 
	C367.400635,126.068420 354.707275,126.123993 341.551086,126.095840 
	C327.063385,126.068863 313.038574,126.125618 298.554993,126.100487 
	C294.480347,126.018600 290.864410,126.018600 286.757385,126.018600 
	C286.757385,123.721039 286.757385,121.940369 286.757385,120.159691 
	C286.757385,89.242386 286.739838,58.325073 286.768463,27.407797 
	C286.776611,18.605135 286.919098,9.802596 287.000000,1.000000 
z"/>
<path fill="#FEFEFF" opacity="1.000000" stroke="none" 
	d="
M137.000000,401.000000 
	C91.696198,401.000000 46.392391,401.000000 1.044292,401.000000 
	C1.044292,267.783051 1.044292,134.566086 1.044292,1.000000 
	C46.020294,1.000000 91.041489,1.000000 136.425903,1.252594 
	C136.814835,1.685845 136.840530,1.866502 136.776184,2.506078 
	C136.686142,43.868694 136.686142,84.772392 136.686142,125.786400 
	C133.300323,125.937454 130.652252,126.055588 127.539886,126.101776 
	C119.051308,126.079475 111.027023,126.129135 102.538956,126.106552 
	C93.717331,126.081955 85.359474,126.129601 76.537857,126.105438 
	C67.716446,126.081352 59.358810,126.129066 50.538158,126.105453 
	C44.715107,126.082184 39.355072,126.130241 33.531517,126.108131 
	C26.121086,126.037971 19.174177,126.037971 12.169724,126.037971 
	C12.169724,176.295547 12.169724,225.987534 12.169724,275.825012 
	C19.049440,275.825012 25.523277,275.825012 32.454983,275.897095 
	C36.943180,275.920868 40.973511,275.872528 45.467613,275.893341 
	C54.955662,275.915802 63.979935,275.869110 73.467834,275.892517 
	C86.290329,275.917114 98.649208,275.871582 111.471664,275.894653 
	C120.027100,275.963287 128.118958,275.963287 136.641876,275.963287 
	C136.641876,278.461365 136.641861,280.262054 136.641861,282.062775 
	C136.641846,307.043427 136.616577,332.024109 136.651566,357.004730 
	C136.671631,371.320984 136.789581,385.637085 136.825867,400.224304 
	C136.858826,400.663544 136.929413,400.831757 137.000000,401.000000 
z"/>
<path fill="#2F9B96" opacity="1.000000" stroke="none" 
	d="
M286.750000,1.000000 
	C286.919098,9.802596 286.776611,18.605135 286.768463,27.407797 
	C286.739838,58.325073 286.757385,89.242386 286.757385,120.159691 
	C286.757385,121.940369 286.757385,123.721039 286.757385,126.018600 
	C290.864410,126.018600 294.480347,126.018600 298.552338,126.473511 
	C299.015778,127.919312 299.023102,128.910202 298.562561,129.941345 
	C293.175110,129.981598 288.255585,129.981598 282.834778,129.981598 
	C282.834778,88.000282 282.834778,46.820404 282.834778,4.932234 
	C273.551941,4.932234 264.788574,4.932234 255.983398,4.593013 
	C255.627716,3.169194 255.313858,2.084596 255.000000,0.999999 
	C264.687561,1.000000 274.375122,1.000000 284.618164,1.167973 
	C285.449097,1.223966 285.724548,1.111985 286.000000,1.000002 
	C286.000000,1.000000 286.500000,1.000000 286.750000,1.000000 
z"/>
<path fill="#6377CE" opacity="1.000000" stroke="none" 
	d="
M136.863464,399.953278 
	C136.789581,385.637085 136.671631,371.320984 136.651566,357.004730 
	C136.616577,332.024109 136.641846,307.043427 136.641861,282.062775 
	C136.641861,280.262054 136.641876,278.461365 136.641876,275.963287 
	C128.118958,275.963287 120.027100,275.963287 111.469772,275.515320 
	C110.996140,274.056580 110.987976,273.045807 111.449493,272.018921 
	C119.571800,271.999725 127.250153,272.377655 134.868286,271.863464 
	C140.211502,271.502777 141.111755,273.484314 141.087433,278.327332 
	C140.896988,316.256927 140.999542,354.187958 140.947723,392.118408 
	C140.943695,395.068207 140.954895,397.606659 145.000641,397.423889 
	C145.000229,398.880829 145.000107,399.940399 145.000000,401.000000 
	C142.958328,401.000000 140.916672,401.000000 138.311584,400.764893 
	C137.453262,400.337616 137.158356,400.145447 136.863464,399.953278 
z"/>
<path fill="#6179CB" opacity="1.000000" stroke="none" 
	d="
M128.004181,126.173729 
	C130.652252,126.055588 133.300323,125.937454 136.686142,125.786400 
	C136.686142,84.772392 136.686142,43.868694 137.019226,2.395127 
	C137.568207,1.550172 137.784103,1.275086 138.000000,1.000000 
	C143.022095,1.000000 148.044189,1.000000 153.533356,1.397438 
	C154.001144,2.854720 154.001862,3.914564 153.536987,4.985284 
	C151.242081,4.999066 149.412811,5.002932 147.583527,5.004705 
	C140.986786,5.011102 140.984406,5.010835 140.984238,11.831334 
	C140.983383,46.920452 140.983841,82.009567 140.983841,117.098686 
	C140.983826,130.123871 140.983810,130.123871 127.994217,129.592545 
	C127.999931,128.200104 128.002060,127.186920 128.004181,126.173729 
z"/>
<path fill="#319999" opacity="1.000000" stroke="none" 
	d="
M286.576660,392.452240 
	C286.655090,395.018188 286.733490,397.584106 286.905945,400.575012 
	C287.000000,401.000000 286.500000,401.000000 286.157837,400.833679 
	C285.543793,400.778198 285.271881,400.889099 285.000000,401.000000 
	C273.312439,401.000000 261.624878,401.000000 249.469177,400.606689 
	C249.008469,399.164581 249.015915,398.115753 249.489258,397.047546 
	C256.082642,397.018951 262.212036,397.103271 268.336975,396.974884 
	C274.734985,396.840790 281.719086,398.869202 286.576660,392.452240 
z"/>
<path fill="#3E8EA8" opacity="1.000000" stroke="none" 
	d="
M254.531342,0.999999 
	C255.313858,2.084596 255.627716,3.169194 255.512787,4.623126 
	C242.726074,4.979601 230.368134,4.966743 218.007019,4.558512 
	C218.002563,3.108759 218.001282,2.054380 218.000000,1.000000 
	C230.020889,1.000000 242.041794,1.000000 254.531342,0.999999 
z"/>
<path fill="#547DC0" opacity="1.000000" stroke="none" 
	d="
M154.002594,4.974408 
	C154.001862,3.914564 154.001144,2.854720 154.000214,1.397438 
	C164.687561,1.000000 175.375122,1.000000 186.531342,1.396408 
	C187.001297,2.849910 187.002579,3.907005 186.534943,4.978168 
	C175.378204,4.986293 164.690384,4.980350 154.002594,4.974408 
z"/>
<path fill="#3F8DAA" opacity="1.000000" stroke="none" 
	d="
M249.023346,397.066956 
	C249.015915,398.115753 249.008469,399.164581 249.000519,400.606689 
	C238.979111,401.000000 228.958206,401.000000 218.468658,400.604645 
	C218.002792,399.154999 218.005569,398.100708 218.475983,397.030670 
	C228.970200,397.032288 238.996765,397.049622 249.023346,397.066956 
z"/>
<path fill="#4986B4" opacity="1.000000" stroke="none" 
	d="
M187.003876,4.964100 
	C187.002579,3.907005 187.001297,2.849910 187.000000,1.396408 
	C197.020889,1.000000 207.041794,1.000000 217.531342,1.000000 
	C218.001282,2.054380 218.002563,3.108759 217.537537,4.577767 
	C207.048782,4.982964 197.026321,4.973532 187.003876,4.964100 
z"/>
<path fill="#597AC6" opacity="1.000000" stroke="none" 
	d="
M145.468658,401.000000 
	C145.000107,399.940399 145.000229,398.880829 145.469131,397.413086 
	C154.625275,397.014923 163.312637,397.024872 171.999847,397.431366 
	C171.999786,398.885254 171.999893,399.942627 172.000000,401.000000 
	C163.312439,401.000000 154.624863,401.000000 145.468658,401.000000 
z"/>
<path fill="#4F81BB" opacity="1.000000" stroke="none" 
	d="
M172.468628,401.000000 
	C171.999893,399.942627 171.999786,398.885254 172.468338,397.418549 
	C180.292725,397.018768 187.648438,397.028320 195.002930,397.434082 
	C195.001114,398.886871 195.000565,399.943420 195.000000,401.000000 
	C187.645752,401.000000 180.291504,401.000000 172.468628,401.000000 
z"/>
<path fill="#4887B3" opacity="1.000000" stroke="none" 
	d="
M195.468628,401.000000 
	C195.000565,399.943420 195.001114,398.886871 195.470947,397.420502 
	C203.296265,397.022614 210.652298,397.034515 218.008362,397.046417 
	C218.005569,398.100708 218.002792,399.154999 218.000000,400.604645 
	C210.645752,401.000000 203.291504,401.000000 195.468628,401.000000 
z"/>
<path fill="#1E968D" opacity="1.000000" stroke="none" 
	d="
M285.750000,1.000002 
	C285.724548,1.111985 285.449097,1.223966 285.086823,1.167973 
	C285.000000,1.000000 285.500000,1.000000 285.750000,1.000002 
z"/>
<path fill="#546AC9" opacity="1.000000" stroke="none" 
	d="
M137.750000,1.000000 
	C137.784103,1.275086 137.568207,1.550172 137.109268,1.936208 
	C136.840530,1.866502 136.814835,1.685845 136.894562,1.252594 
	C137.000000,1.000000 137.500000,1.000000 137.750000,1.000000 
z"/>
<path fill="#546AC9" opacity="1.000000" stroke="none" 
	d="
M136.825867,400.224304 
	C137.158356,400.145447 137.453262,400.337616 137.874084,400.764893 
	C138.000000,401.000000 137.500000,401.000000 137.250000,401.000000 
	C136.929413,400.831757 136.858826,400.663544 136.825867,400.224304 
z"/>
<path fill="#259A90" opacity="1.000000" stroke="none" 
	d="
M285.250000,401.000000 
	C285.271881,400.889099 285.543793,400.778198 285.907837,400.833679 
	C286.000000,401.000000 285.500000,401.000000 285.250000,401.000000 
z"/>
<path fill="#759EBD" opacity="1.000000" stroke="none" 
	d="
M218.475983,397.030670 
	C210.652298,397.034515 203.296265,397.022614 195.472198,397.024292 
	C187.648438,397.028320 180.292725,397.018768 172.468506,397.022034 
	C163.312637,397.024872 154.625275,397.014923 145.469421,397.015747 
	C140.954895,397.606659 140.943695,395.068207 140.947723,392.118408 
	C140.999542,354.187958 140.896988,316.256927 141.087433,278.327332 
	C141.111755,273.484314 140.211502,271.502777 134.868286,271.863464 
	C127.250153,272.377655 119.571800,271.999725 110.983124,272.009399 
	C97.692017,272.031952 85.336975,272.048004 72.515396,272.042664 
	C63.027237,272.039459 54.005611,272.057617 44.523987,272.048706 
	C40.040924,272.045563 36.017860,272.069489 31.528576,272.061951 
	C26.138559,272.030518 21.214764,272.030518 16.284010,272.030518 
	C16.284010,224.281433 16.284010,177.417572 16.284010,129.901703 
	C22.086264,129.901703 27.539968,129.901703 33.460545,129.941345 
	C39.279964,129.960403 44.632519,129.939819 50.453667,129.951385 
	C59.609493,129.968414 68.296722,129.953262 77.453575,129.965332 
	C86.278084,129.979721 94.632980,129.966858 103.457397,129.974182 
	C111.948158,129.986847 119.969391,129.979324 127.990623,129.971786 
	C140.983810,130.123871 140.983826,130.123871 140.983841,117.098686 
	C140.983841,82.009567 140.983383,46.920452 140.984238,11.831334 
	C140.984406,5.010835 140.986786,5.011102 147.583527,5.004705 
	C149.412811,5.002932 151.242081,4.999066 153.536972,4.985284 
	C164.690384,4.980350 175.378204,4.986293 186.534943,4.978168 
	C197.026321,4.973532 207.048782,4.982964 217.540710,4.973140 
	C230.368134,4.966743 242.726074,4.979601 255.554611,4.962347 
	C264.788574,4.932234 273.551941,4.932234 282.834778,4.932234 
	C282.834778,46.820404 282.834778,88.000282 282.834778,129.981598 
	C288.255585,129.981598 293.175110,129.981598 299.027405,129.971802 
	C313.984009,129.933350 328.007782,129.904724 342.496155,129.915497 
	C355.653503,129.916336 368.346283,129.877777 381.503082,129.885223 
	C390.404541,129.931213 398.842041,129.931213 407.396790,129.931213 
	C407.396790,177.656570 407.396790,224.671432 407.396790,272.164490 
	C399.995667,272.164490 393.013031,272.164490 385.563049,272.095459 
	C376.736572,272.063904 368.377380,272.101349 359.551331,272.084045 
	C350.065887,272.057373 341.047333,272.085541 331.560547,272.065552 
	C321.062714,272.048370 311.033112,272.079346 300.536530,272.068909 
	C294.516907,272.027435 288.964325,272.027435 282.611633,272.027435 
	C283.430298,275.194031 284.044800,277.570892 284.442780,280.194885 
	C284.525574,281.482269 284.824921,282.522491 285.124268,283.562744 
	C285.124268,283.562744 285.052551,283.509583 284.780121,283.780182 
	C284.720245,285.546173 284.932831,287.041534 285.145416,288.536926 
	C285.468781,288.665680 285.575226,288.895325 284.979309,289.653870 
	C283.762115,292.563599 282.588226,295.167328 286.247803,296.437103 
	C286.115021,298.045349 285.982208,299.653625 285.209229,301.580078 
	C284.342529,302.294067 284.115967,302.689880 283.858734,303.539154 
	C284.265900,307.504974 284.703766,311.017303 285.141602,314.529663 
	C285.665070,316.839478 286.598694,319.142181 286.639038,321.460419 
	C286.791382,330.220245 286.653625,338.985138 286.045227,348.262329 
	C282.707672,350.644501 283.870087,351.669220 286.252106,352.431641 
	C286.376221,362.870483 286.500366,373.309296 286.045288,384.262390 
	C282.707336,386.644592 283.870209,387.669189 286.252136,388.431610 
	C286.401001,389.554474 286.549866,390.677368 286.637695,392.126221 
	C281.719086,398.869202 274.734985,396.840790 268.336975,396.974884 
	C262.212036,397.103271 256.082642,397.018951 249.489258,397.047546 
	C238.996765,397.049622 228.970200,397.032288 218.475983,397.030670 
M58.172150,200.392899 
	C59.825470,203.842728 61.306358,207.391388 63.203850,210.701248 
	C64.172325,212.390579 65.888176,213.651443 67.266212,215.105988 
	C68.626366,213.642273 70.344833,212.375107 71.276611,210.676407 
	C73.660225,206.330948 75.693619,201.793365 77.867096,197.332626 
	C78.270172,197.482468 78.673241,197.632309 79.076317,197.782150 
	C79.076317,204.546341 79.076317,211.310532 79.076317,218.359848 
	C80.806244,218.359848 82.174049,218.359848 83.648254,218.359848 
	C83.648254,207.792755 83.648254,197.561401 83.648254,187.443970 
	C79.296318,185.984711 76.926964,187.378036 75.261238,191.353317 
	C73.050613,196.628983 70.237343,201.652130 67.267448,207.618668 
	C64.242340,201.585739 61.391769,196.528152 59.141762,191.216187 
	C57.326679,186.931030 54.702221,185.984879 50.284756,187.654343 
	C50.284756,196.352768 50.230469,204.985565 50.324173,213.616745 
	C50.346680,215.689713 49.274334,219.032578 53.127758,218.463120 
	C54.205933,218.303802 55.529163,215.486221 55.629223,213.821274 
	C55.949249,208.496231 55.748020,203.139847 55.748020,197.795563 
	C56.061844,197.759171 56.375668,197.722794 56.689495,197.686401 
	C57.082165,198.362808 57.474834,199.039200 58.172150,200.392899 
M212.898132,218.687103 
	C215.093689,217.987823 217.534760,217.686584 219.437714,216.512894 
	C224.668213,213.286942 224.095779,207.339294 218.241104,201.650330 
	C223.786972,195.385712 222.597168,188.459412 215.369064,187.421326 
	C209.596924,186.592377 203.610703,187.253998 197.286514,187.253998 
	C197.286514,193.141876 197.218811,198.593445 197.307236,204.042465 
	C197.382095,208.654861 195.884262,215.204300 198.274551,217.364639 
	C201.018829,219.844955 207.278824,218.435333 212.898132,218.687103 
M140.635834,186.920013 
	C139.022675,186.920013 137.409515,186.920013 135.624664,186.920013 
	C135.624664,197.803604 135.624664,208.121567 135.624664,218.707031 
	C140.528717,218.707031 145.015717,218.953613 149.466263,218.655563 
	C158.653610,218.040268 165.091553,211.039062 164.835312,202.302536 
	C164.576996,193.495758 157.872284,187.150238 148.568771,186.940186 
	C146.244125,186.887711 143.917465,186.924316 140.635834,186.920013 
M288.041748,188.048981 
	C284.602173,187.712692 281.104248,186.806305 277.734406,187.151291 
	C269.009796,188.044464 262.747803,197.170944 264.578461,205.668213 
	C266.191010,213.152954 272.422638,218.431320 280.138947,218.848312 
	C288.117615,219.279480 295.171844,214.468735 297.329773,207.124756 
	C299.544128,199.588730 296.600739,193.153030 288.041748,188.048981 
M104.620819,186.927475 
	C102.866974,186.927475 101.113129,186.927475 99.372696,186.927475 
	C99.372696,197.905228 99.372696,208.113480 99.372696,218.458405 
	C107.018936,218.458405 114.276543,218.458405 121.801208,218.458405 
	C121.801208,216.772583 121.801208,215.361160 121.801208,213.410477 
	C118.091469,213.410477 114.627403,213.413528 111.163330,213.409836 
	C103.908066,213.402115 103.777031,213.228622 105.340942,205.024979 
	C109.950012,205.024979 114.692299,205.024979 119.380447,205.024979 
	C120.514977,201.260544 119.531395,199.867844 116.045547,200.052246 
	C112.439537,200.243011 108.815582,200.094681 105.021637,200.094681 
	C105.021637,197.095596 105.021637,194.725769 105.021637,191.864594 
	C110.645538,191.864594 115.906044,191.864594 121.134117,191.864594 
	C122.367607,188.332520 121.755066,186.729294 118.073723,186.887375 
	C113.919716,187.065781 109.752129,186.927856 104.620819,186.927475 
M373.495361,214.947433 
	C370.970123,211.445740 368.576508,207.838501 365.878601,204.475296 
	C363.668579,201.720245 363.228485,199.600739 366.162079,196.902313 
	C369.122803,194.178970 371.529419,190.853287 374.178802,187.791489 
	C363.745667,187.255280 361.762238,197.922424 353.930206,201.729553 
	C353.930206,196.777496 353.930206,192.081314 353.930206,186.972946 
	C351.776367,187.068832 350.235291,187.137436 348.289795,187.224045 
	C348.289795,196.632736 348.394806,205.581314 348.246643,214.525711 
	C348.169525,219.183655 350.290039,219.409943 354.054260,217.889038 
	C353.261383,212.534988 354.215576,207.965225 359.027466,205.553009 
	C365.268799,209.058746 365.295471,219.800613 375.972870,218.503525 
	C374.996552,217.077866 374.458496,216.292191 373.495361,214.947433 
M318.902222,192.980621 
	C324.151917,190.248444 328.808838,192.316269 333.418182,195.124542 
	C334.375549,193.892990 335.161469,192.881958 335.925201,191.899490 
	C329.304230,185.083679 318.887146,185.028183 312.156311,191.586960 
	C305.992981,197.592728 306.052551,207.715622 312.287903,213.946014 
	C319.020508,220.673279 328.800171,220.518967 336.032196,213.304810 
	C335.119141,212.284500 334.192078,211.248535 333.314880,210.268295 
	C325.267700,215.031509 319.460480,214.581329 315.284180,209.092285 
	C311.480316,204.092728 312.524872,198.470703 318.902222,192.980621 
M241.992935,212.334183 
	C241.992935,203.972229 241.992935,195.610275 241.992935,186.925812 
	C239.422791,187.046082 237.999420,187.112686 236.052094,187.203812 
	C236.052094,189.109711 236.052094,190.727539 236.052094,192.345383 
	C236.052094,200.931396 236.052094,209.517410 236.052094,218.414581 
	C242.585342,218.414581 248.617004,218.414581 254.774887,218.414581 
	C254.774887,216.684982 254.774887,215.279205 254.774887,213.639923 
	C250.535980,213.438538 246.591537,213.251144 241.992935,212.334183 
M178.605621,186.979538 
	C178.130173,187.376404 177.242569,187.770126 177.239532,188.170563 
	C177.162888,198.248383 177.179260,208.326904 177.179260,218.815002 
	C179.381500,218.656387 180.931366,218.544754 182.757095,218.413254 
	C182.757095,208.609146 182.860962,199.300522 182.613663,190.001236 
	C182.585617,188.946899 180.581924,187.945114 178.605621,186.979538 
z"/>
<path fill="#03BC62" opacity="1.000000" stroke="none" 
	d="
M386.030396,272.164490 
	C393.013031,272.164490 399.995667,272.164490 407.396790,272.164490 
	C407.396790,224.671432 407.396790,177.656570 407.396790,129.931213 
	C398.842041,129.931213 390.404541,129.931213 381.491394,129.521973 
	C381.017181,128.137589 381.018646,127.162453 381.020111,126.187325 
	C386.438477,126.449631 391.854523,126.793480 397.275940,126.948677 
	C401.677460,127.074684 406.085480,126.974258 410.999512,126.974258 
	C410.999512,175.869095 410.999512,225.623367 410.999512,275.960510 
	C403.127472,275.960510 395.034454,275.960510 386.476440,275.520813 
	C386.017761,274.108917 386.024078,273.136688 386.030396,272.164490 
z"/>
<path fill="#21A886" opacity="1.000000" stroke="none" 
	d="
M342.031586,129.876083 
	C328.007782,129.904724 313.984009,129.933350 299.495331,129.931549 
	C299.023102,128.910202 299.015778,127.919312 299.011078,126.555397 
	C313.038574,126.125618 327.063385,126.068863 341.548218,126.466660 
	C342.015991,127.906166 342.023773,128.891129 342.031586,129.876083 
z"/>
<path fill="#13B376" opacity="1.000000" stroke="none" 
	d="
M342.496155,129.915497 
	C342.023773,128.891129 342.015991,127.906166 342.011078,126.550385 
	C354.707275,126.123993 367.400635,126.068420 380.557037,126.100090 
	C381.018646,127.162453 381.017181,128.137589 381.027405,129.475967 
	C368.346283,129.877777 355.653503,129.916336 342.496155,129.915497 
z"/>
<path fill="#25A68A" opacity="1.000000" stroke="none" 
	d="
M301.003540,272.110352 
	C311.033112,272.079346 321.062714,272.048370 331.549408,272.518311 
	C332.040253,273.937134 332.074005,274.855042 332.107727,275.772919 
	C321.714447,275.837738 311.321136,275.902588 300.502075,275.566772 
	C300.385376,274.147522 300.694458,273.128937 301.003540,272.110352 
z"/>
<path fill="#17AF7B" opacity="1.000000" stroke="none" 
	d="
M332.514099,275.846741 
	C332.074005,274.855042 332.040253,273.937134 332.017670,272.566467 
	C341.047333,272.085541 350.065887,272.057373 359.545410,272.450073 
	C360.006989,273.853485 360.007568,274.836029 360.008148,275.818573 
	C350.978912,275.852570 341.949707,275.886536 332.514099,275.846741 
z"/>
<path fill="#0FB672" opacity="1.000000" stroke="none" 
	d="
M360.470825,275.893921 
	C360.007568,274.836029 360.006989,273.853485 360.012299,272.504883 
	C368.377380,272.101349 376.736572,272.063904 385.563049,272.095459 
	C386.024078,273.136688 386.017761,274.108917 386.014069,275.447083 
	C377.655640,275.865082 369.294556,275.917175 360.470825,275.893921 
z"/>
<path fill="#259A90" opacity="1.000000" stroke="none" 
	d="
M300.536499,272.068909 
	C300.694458,273.128937 300.385376,274.147522 300.039581,275.487915 
	C296.510529,275.870300 292.983368,275.673920 289.545929,276.139557 
	C288.435852,276.289917 287.561432,278.179901 286.050903,279.638855 
	C285.234802,279.985016 284.947052,279.966400 284.659332,279.947784 
	C284.044800,277.570892 283.430298,275.194031 282.611633,272.027435 
	C288.964325,272.027435 294.516907,272.027435 300.536499,272.068909 
z"/>
<path fill="#319999" opacity="1.000000" stroke="none" 
	d="
M285.627106,314.410187 
	C284.703766,311.017303 284.265900,307.504974 284.358582,303.434937 
	C285.209351,302.764130 285.529633,302.651062 285.849854,302.537964 
	C285.937439,306.455536 286.025024,310.373138 285.627106,314.410187 
z"/>
<path fill="#319999" opacity="1.000000" stroke="none" 
	d="
M286.401123,295.985962 
	C282.588226,295.167328 283.762115,292.563599 284.815613,289.784607 
	C285.609711,291.503174 286.082092,293.519012 286.401123,295.985962 
z"/>
<path fill="#319999" opacity="1.000000" stroke="none" 
	d="
M285.616913,288.471497 
	C284.932831,287.041534 284.720245,285.546173 284.823303,283.768799 
	C285.455383,285.126556 285.771881,286.766327 285.616913,288.471497 
z"/>
<path fill="#319999" opacity="1.000000" stroke="none" 
	d="
M286.404907,351.960938 
	C283.870087,351.669220 282.707672,350.644501 285.860596,348.673462 
	C286.355988,349.543671 286.456848,350.516968 286.404907,351.960938 
z"/>
<path fill="#319999" opacity="1.000000" stroke="none" 
	d="
M286.404907,387.960907 
	C283.870209,387.669189 282.707336,386.644592 285.860657,384.673492 
	C286.356018,385.543640 286.456848,386.516937 286.404907,387.960907 
z"/>
<path fill="#319999" opacity="1.000000" stroke="none" 
	d="
M284.442780,280.194885 
	C284.947052,279.966400 285.234802,279.985016 285.955170,280.035583 
	C286.272217,281.220398 286.156677,282.373199 285.582703,283.544373 
	C284.824921,282.522491 284.525574,281.482269 284.442780,280.194885 
z"/>
<path fill="#259A90" opacity="1.000000" stroke="none" 
	d="
M285.802307,302.187195 
	C285.529633,302.651062 285.209351,302.764130 284.389282,302.981445 
	C284.115967,302.689880 284.342529,302.294067 284.851562,301.697021 
	C285.340942,301.609314 285.547852,301.722839 285.802307,302.187195 
z"/>
<path fill="#8857F7" opacity="1.000000" stroke="none" 
	d="
M32.993675,129.901703 
	C27.539968,129.901703 22.086264,129.901703 16.284010,129.901703 
	C16.284010,177.417572 16.284010,224.281433 16.284010,272.030518 
	C21.214764,272.030518 26.138559,272.030518 31.530491,272.433289 
	C31.998123,273.832367 31.997620,274.828705 31.997116,275.825012 
	C25.523277,275.825012 19.049440,275.825012 12.169724,275.825012 
	C12.169724,225.987534 12.169724,176.295547 12.169724,126.037971 
	C19.174177,126.037971 26.121086,126.037971 33.495476,126.431259 
	C33.613194,127.850258 33.303436,128.875977 32.993675,129.901703 
z"/>
<path fill="#7269E0" opacity="1.000000" stroke="none" 
	d="
M72.981926,272.064056 
	C85.336975,272.048004 97.692017,272.031952 110.513443,272.025452 
	C110.987976,273.045807 110.996140,274.056580 111.006195,275.446716 
	C98.649208,275.871582 86.290329,275.917114 73.466705,275.516144 
	C72.995277,274.067780 72.988602,273.065918 72.981926,272.064056 
z"/>
<path fill="#7C61EC" opacity="1.000000" stroke="none" 
	d="
M72.515396,272.042664 
	C72.988602,273.065918 72.995277,274.067780 73.003082,275.446045 
	C63.979935,275.869110 54.955662,275.915802 45.466454,275.518066 
	C44.995674,274.074371 44.989830,273.075073 44.983986,272.075775 
	C54.005611,272.057617 63.027237,272.039459 72.515396,272.042664 
z"/>
<path fill="#7A62EA" opacity="1.000000" stroke="none" 
	d="
M76.983948,129.938110 
	C68.296722,129.953262 59.609493,129.968414 50.490112,129.628937 
	C50.372368,128.241806 50.686771,127.209290 51.001175,126.176781 
	C59.358810,126.129066 67.716446,126.081352 76.537506,126.482040 
	C76.995270,127.932999 76.989609,128.935547 76.983948,129.938110 
z"/>
<path fill="#7169E0" opacity="1.000000" stroke="none" 
	d="
M77.453568,129.965332 
	C76.989609,128.935547 76.995270,127.932999 77.001274,126.553848 
	C85.359474,126.129601 93.717331,126.081955 102.538292,126.484436 
	C102.996895,127.941048 102.992386,128.947525 102.987869,129.954010 
	C94.632980,129.966858 86.278084,129.979721 77.453568,129.965332 
z"/>
<path fill="#6970D6" opacity="1.000000" stroke="none" 
	d="
M103.457397,129.974182 
	C102.992386,128.947525 102.996895,127.941048 103.002068,126.556686 
	C111.027023,126.129135 119.051308,126.079475 127.539886,126.101776 
	C128.002060,127.186920 127.999931,128.200104 127.994217,129.592545 
	C119.969391,129.979324 111.948158,129.986847 103.457397,129.974182 
z"/>
<path fill="#845CF4" opacity="1.000000" stroke="none" 
	d="
M50.538162,126.105453 
	C50.686771,127.209290 50.372368,128.241806 50.021515,129.596771 
	C44.632519,129.939819 39.279964,129.960403 33.460548,129.941345 
	C33.303436,128.875977 33.613194,127.850258 33.958992,126.501419 
	C39.355072,126.130241 44.715107,126.082184 50.538162,126.105453 
z"/>
<path fill="#865BF6" opacity="1.000000" stroke="none" 
	d="
M44.523987,272.048706 
	C44.989830,273.075073 44.995674,274.074371 45.002678,275.448914 
	C40.973511,275.872528 36.943180,275.920868 32.454983,275.897095 
	C31.997620,274.828705 31.998123,273.832367 31.996712,272.464722 
	C36.017860,272.069489 40.040924,272.045563 44.523987,272.048706 
z"/>
<path fill="#F6F9FA" opacity="1.000000" stroke="none" 
	d="
M58.019829,200.054260 
	C57.474834,199.039200 57.082165,198.362808 56.689495,197.686401 
	C56.375668,197.722794 56.061844,197.759171 55.748020,197.795563 
	C55.748020,203.139847 55.949249,208.496231 55.629223,213.821274 
	C55.529163,215.486221 54.205933,218.303802 53.127758,218.463120 
	C49.274334,219.032578 50.346680,215.689713 50.324173,213.616745 
	C50.230469,204.985565 50.284756,196.352768 50.284756,187.654343 
	C54.702221,185.984879 57.326679,186.931030 59.141762,191.216187 
	C61.391769,196.528152 64.242340,201.585739 67.267448,207.618668 
	C70.237343,201.652130 73.050613,196.628983 75.261238,191.353317 
	C76.926964,187.378036 79.296318,185.984711 83.648254,187.443970 
	C83.648254,197.561401 83.648254,207.792755 83.648254,218.359848 
	C82.174049,218.359848 80.806244,218.359848 79.076317,218.359848 
	C79.076317,211.310532 79.076317,204.546341 79.076317,197.782150 
	C78.673241,197.632309 78.270172,197.482468 77.867096,197.332626 
	C75.693619,201.793365 73.660225,206.330948 71.276611,210.676407 
	C70.344833,212.375107 68.626366,213.642273 67.266212,215.105988 
	C65.888176,213.651443 64.172325,212.390579 63.203850,210.701248 
	C61.306358,207.391388 59.825470,203.842728 58.019829,200.054260 
z"/>
<path fill="#F6F9FB" opacity="1.000000" stroke="none" 
	d="
M212.454880,218.701294 
	C207.278824,218.435333 201.018829,219.844955 198.274551,217.364639 
	C195.884262,215.204300 197.382095,208.654861 197.307236,204.042465 
	C197.218811,198.593445 197.286514,193.141876 197.286514,187.253998 
	C203.610703,187.253998 209.596924,186.592377 215.369064,187.421326 
	C222.597168,188.459412 223.786972,195.385712 218.241104,201.650330 
	C224.095779,207.339294 224.668213,213.286942 219.437714,216.512894 
	C217.534760,217.686584 215.093689,217.987823 212.454880,218.701294 
M214.224640,213.174942 
	C215.298416,211.559174 217.558792,209.506454 217.163086,208.431824 
	C216.594131,206.886780 214.212173,205.402466 212.387100,205.064743 
	C209.421417,204.515991 206.280029,204.916763 203.286667,204.916763 
	C203.286667,208.292084 203.286667,210.862579 203.286667,213.979980 
	C206.921219,213.775986 210.183777,213.592880 214.224640,213.174942 
M202.938629,195.516891 
	C203.056747,196.920975 203.174881,198.325073 203.307541,199.901947 
	C206.548569,199.901947 209.356583,200.134644 212.108444,199.841034 
	C215.301666,199.500305 217.321701,197.111374 215.647278,194.414673 
	C214.637756,192.788803 211.263245,192.085999 208.914398,192.001770 
	C206.867203,191.928360 203.212372,189.931793 202.938629,195.516891 
z"/>
<path fill="#F3F6F9" opacity="1.000000" stroke="none" 
	d="
M141.113770,186.919983 
	C143.917465,186.924316 146.244125,186.887711 148.568771,186.940186 
	C157.872284,187.150238 164.576996,193.495758 164.835312,202.302536 
	C165.091553,211.039062 158.653610,218.040268 149.466263,218.655563 
	C145.015717,218.953613 140.528717,218.707031 135.624664,218.707031 
	C135.624664,208.121567 135.624664,197.803604 135.624664,186.920013 
	C137.409515,186.920013 139.022675,186.920013 141.113770,186.919983 
M159.088196,201.736328 
	C157.330444,193.076447 151.583893,190.122864 141.194611,192.648529 
	C141.194611,199.497452 141.194611,206.378662 141.194611,213.202332 
	C152.588928,215.229965 158.430374,211.684067 159.088196,201.736328 
z"/>
<path fill="#F6F9FB" opacity="1.000000" stroke="none" 
	d="
M288.399536,188.215088 
	C296.600739,193.153030 299.544128,199.588730 297.329773,207.124756 
	C295.171844,214.468735 288.117615,219.279480 280.138947,218.848312 
	C272.422638,218.431320 266.191010,213.152954 264.578461,205.668213 
	C262.747803,197.170944 269.009796,188.044464 277.734406,187.151291 
	C281.104248,186.806305 284.602173,187.712692 288.399536,188.215088 
M292.010284,200.030518 
	C289.417542,193.634689 285.102661,190.952606 278.969604,191.924576 
	C274.201294,192.680283 270.264465,197.021912 269.958160,201.862671 
	C269.556335,208.212799 274.373871,213.624542 280.642029,213.928757 
	C287.335144,214.253616 293.619904,208.123154 292.010284,200.030518 
z"/>
<path fill="#F5F8FA" opacity="1.000000" stroke="none" 
	d="
M105.105637,186.927490 
	C109.752129,186.927856 113.919716,187.065781 118.073723,186.887375 
	C121.755066,186.729294 122.367607,188.332520 121.134117,191.864594 
	C115.906044,191.864594 110.645538,191.864594 105.021637,191.864594 
	C105.021637,194.725769 105.021637,197.095596 105.021637,200.094681 
	C108.815582,200.094681 112.439537,200.243011 116.045547,200.052246 
	C119.531395,199.867844 120.514977,201.260544 119.380447,205.024979 
	C114.692299,205.024979 109.950012,205.024979 105.340942,205.024979 
	C103.777031,213.228622 103.908066,213.402115 111.163330,213.409836 
	C114.627403,213.413528 118.091469,213.410477 121.801208,213.410477 
	C121.801208,215.361160 121.801208,216.772583 121.801208,218.458405 
	C114.276543,218.458405 107.018936,218.458405 99.372696,218.458405 
	C99.372696,208.113480 99.372696,197.905228 99.372696,186.927475 
	C101.113129,186.927475 102.866974,186.927475 105.105637,186.927490 
z"/>
<path fill="#F7F9FB" opacity="1.000000" stroke="none" 
	d="
M373.707886,215.226974 
	C374.458496,216.292191 374.996552,217.077866 375.972870,218.503525 
	C365.295471,219.800613 365.268799,209.058746 359.027466,205.553009 
	C354.215576,207.965225 353.261383,212.534988 354.054260,217.889038 
	C350.290039,219.409943 348.169525,219.183655 348.246643,214.525711 
	C348.394806,205.581314 348.289795,196.632736 348.289795,187.224045 
	C350.235291,187.137436 351.776367,187.068832 353.930206,186.972946 
	C353.930206,192.081314 353.930206,196.777496 353.930206,201.729553 
	C361.762238,197.922424 363.745667,187.255280 374.178802,187.791489 
	C371.529419,190.853287 369.122803,194.178970 366.162079,196.902313 
	C363.228485,199.600739 363.668579,201.720245 365.878601,204.475296 
	C368.576508,207.838501 370.970123,211.445740 373.707886,215.226974 
z"/>
<path fill="#F7F9FB" opacity="1.000000" stroke="none" 
	d="
M318.554810,193.169464 
	C312.524872,198.470703 311.480316,204.092728 315.284180,209.092285 
	C319.460480,214.581329 325.267700,215.031509 333.314880,210.268295 
	C334.192078,211.248535 335.119141,212.284500 336.032196,213.304810 
	C328.800171,220.518967 319.020508,220.673279 312.287903,213.946014 
	C306.052551,207.715622 305.992981,197.592728 312.156311,191.586960 
	C318.887146,185.028183 329.304230,185.083679 335.925201,191.899490 
	C335.161469,192.881958 334.375549,193.892990 333.418182,195.124542 
	C328.808838,192.316269 324.151917,190.248444 318.554810,193.169464 
z"/>
<path fill="#F5F8FA" opacity="1.000000" stroke="none" 
	d="
M242.320007,212.698975 
	C246.591537,213.251144 250.535980,213.438538 254.774887,213.639923 
	C254.774887,215.279205 254.774887,216.684982 254.774887,218.414581 
	C248.617004,218.414581 242.585342,218.414581 236.052094,218.414581 
	C236.052094,209.517410 236.052094,200.931396 236.052094,192.345383 
	C236.052094,190.727539 236.052094,189.109711 236.052094,187.203812 
	C237.999420,187.112686 239.422791,187.046082 241.992935,186.925812 
	C241.992935,195.610275 241.992935,203.972229 242.320007,212.698975 
z"/>
<path fill="#EDF2F6" opacity="1.000000" stroke="none" 
	d="
M179.049973,186.949249 
	C180.581924,187.945114 182.585617,188.946899 182.613663,190.001236 
	C182.860962,199.300522 182.757095,208.609146 182.757095,218.413254 
	C180.931366,218.544754 179.381500,218.656387 177.179260,218.815002 
	C177.179260,208.326904 177.162888,198.248383 177.239532,188.170563 
	C177.242569,187.770126 178.130173,187.376404 179.049973,186.949249 
z"/>
<path fill="#79A1BF" opacity="1.000000" stroke="none" 
	d="
M213.835495,213.292358 
	C210.183777,213.592880 206.921219,213.775986 203.286667,213.979980 
	C203.286667,210.862579 203.286667,208.292084 203.286667,204.916763 
	C206.280029,204.916763 209.421417,204.515991 212.387100,205.064743 
	C214.212173,205.402466 216.594131,206.886780 217.163086,208.431824 
	C217.558792,209.506454 215.298416,211.559174 213.835495,213.292358 
z"/>
<path fill="#779FBE" opacity="1.000000" stroke="none" 
	d="
M202.942505,195.053375 
	C203.212372,189.931793 206.867203,191.928360 208.914398,192.001770 
	C211.263245,192.085999 214.637756,192.788803 215.647278,194.414673 
	C217.321701,197.111374 215.301666,199.500305 212.108444,199.841034 
	C209.356583,200.134644 206.548569,199.901947 203.307541,199.901947 
	C203.174881,198.325073 203.056747,196.920975 202.942505,195.053375 
z"/>
<path fill="#779FBE" opacity="1.000000" stroke="none" 
	d="
M159.096680,202.152237 
	C158.430374,211.684067 152.588928,215.229965 141.194611,213.202332 
	C141.194611,206.378662 141.194611,199.497452 141.194611,192.648529 
	C151.583893,190.122864 157.330444,193.076447 159.096680,202.152237 
z"/>
<path fill="#779FBE" opacity="1.000000" stroke="none" 
	d="
M292.059326,200.445572 
	C293.619904,208.123154 287.335144,214.253616 280.642029,213.928757 
	C274.373871,213.624542 269.556335,208.212799 269.958160,201.862671 
	C270.264465,197.021912 274.201294,192.680283 278.969604,191.924576 
	C285.102661,190.952606 289.417542,193.634689 292.059326,200.445572 
z"/>
</svg>